<svg xmlns="http://www.w3.org/2000/svg" xmlns:xlink="http://www.w3.org/1999/xlink" viewBox="0 0 770.65 111.04"><defs><style>.cls-1{isolation:isolate;}.cls-2{fill:#676767;}.cls-3{fill:#c2d1d6;}.cls-4{fill:#0e7ab2;}.cls-5{fill:url(#linear-gradient);}.cls-6{fill:url(#linear-gradient-2);}.cls-7{fill:#cadadf;}.cls-8{fill:url(#linear-gradient-3);}.cls-9{fill:url(#linear-gradient-4);}.cls-10{fill:#010101;opacity:0.08;mix-blend-mode:multiply;}.cls-11,.cls-13{opacity:0.5;mix-blend-mode:overlay;}.cls-12,.cls-13{fill:#fff;}</style><linearGradient id="linear-gradient" x1="8942.6" y1="-1131.71" x2="9099.76" y2="-1131.71" gradientTransform="matrix(-0.97, 0.25, 0.25, 0.97, 9120.61, -1164.75)" gradientUnits="userSpaceOnUse"><stop offset="0.39" stop-color="#68add6"/><stop offset="0.75" stop-color="#53b6aa"/><stop offset="1" stop-color="#47bc8f"/></linearGradient><linearGradient id="linear-gradient-2" x1="4.31" y1="56.41" x2="189.81" y2="56.41" gradientUnits="userSpaceOnUse"><stop offset="0" stop-color="#47bc8f"/><stop offset="0.02" stop-color="#4abb95"/><stop offset="0.12" stop-color="#57b5b1"/><stop offset="0.22" stop-color="#60b0c6"/><stop offset="0.32" stop-color="#66aed2"/><stop offset="0.41" stop-color="#68add6"/></linearGradient><linearGradient id="linear-gradient-3" x1="8942.6" y1="-1129.27" x2="9074.75" y2="-1129.27" gradientTransform="matrix(-0.97, 0.25, 0.25, 0.97, 9120.61, -1164.75)" gradientUnits="userSpaceOnUse"><stop offset="0.23" stop-color="#68add6"/><stop offset="0.62" stop-color="#58b4b4"/><stop offset="1" stop-color="#47bc8f"/></linearGradient><linearGradient id="linear-gradient-4" x1="5.87" y1="56.42" x2="189.81" y2="56.42" gradientUnits="userSpaceOnUse"><stop offset="0" stop-color="#47bc8f"/><stop offset="0.28" stop-color="#58b4b4"/><stop offset="0.57" stop-color="#68add6"/></linearGradient></defs><title>New TCM Logo</title><g class="cls-1"><g id="Layer_2" data-name="Layer 2"><g id="Layer_1-2" data-name="Layer 1"><path class="cls-2" d="M220.91,14.34H207.55V11.75h29.3v2.58H223.93v34h-3Z"/><path class="cls-2" d="M268.3,48.37V32H245V48.37h-3V11.75h3V29H268.3V11.75h3V48.37Z"/><path class="cls-2" d="M282.09,28.56H303.2v2.58H281.66V45.79h23.26v2.58H279.07V11.75h25v2.58h-22Z"/><path class="cls-2" d="M189,99.48a25.75,25.75,0,0,1-18.57,7.26c-18.15,0-25.83-12.49-25.9-25.2s8.24-25.76,25.9-25.76a25.21,25.21,0,0,1,17.94,7.47l-6.14,5.93a16.79,16.79,0,0,0-11.8-4.61c-11.8,0-16.89,8.79-16.82,17s4.75,16.54,16.82,16.54a18,18,0,0,0,12.28-5Z"/><path class="cls-2" d="M226.41,96.63H201.33l-4.11,9H187L208.86,57h10l21.84,48.68H230.46ZM213.87,67.21,204.8,88h18.15Z"/><path class="cls-2" d="M286.83,70.27,271,91.46h-1.81L253.65,70.2v35.47h-9.48V57h10.61l15.28,20.93L285.34,57h10.54v48.68h-9Z"/><path class="cls-2" d="M328.23,91.46H314v14.22h-9V56.56c7.77,0,15.54-.07,23.31-.07C352.39,56.49,352.46,91.46,328.23,91.46ZM314,82.84h13.76c11.74,0,11.67-17.23,0-17.23H314Z"/><path class="cls-2" d="M386.33,96.63H361.24l-4.11,9H346.94L368.78,57h10l21.84,48.68H390.37ZM373.78,67.21,364.71,88h18.15Z"/><path class="cls-2" d="M404.44,105.68V57h9v48.68Z"/><path class="cls-2" d="M458.43,68.58a19.32,19.32,0,0,0-12.68-4.89c-10.68,0-17.16,8-17.16,18,0,8,4.77,16.33,17.16,16.33A16.78,16.78,0,0,0,457,94.13V85.43H444.51V77.24h21.11V97.83a25,25,0,0,1-19.87,8.8c-18.73,0-26.35-12.08-26.35-24.92,0-13.75,8.76-26.46,26.35-26.46a26.6,26.6,0,0,1,18.51,7.47Z"/><path class="cls-2" d="M504.83,56.56h9.48v49.11h-5.6v.07l-25.85-33v32.95h-9.48V57h7.48l24,30.18Z"/><path class="cls-2" d="M585.39,62.7,566.7,91h-1.26L546.62,62.7v43h-3.45V58.35L547.64,57l18.62,28.35L584.68,57h4.59v48.68h-3.88Z"/><path class="cls-2" d="M639,105.68l-5.4-12.06H604.26l-5.33,12.06h-3.87L616.9,57H621l21.84,48.68ZM632,90.17,618.92,60.43,605.8,90.17Z"/><path class="cls-2" d="M682.76,105.68h-4.83L652.17,81.59v24.08H648.3V57h3.88V79.21L676.59,57h4v.35l-23.69,23,25.85,25.11Z"/><path class="cls-2" d="M691.38,79.39h28.43v3.45H691.38v19.39h31v3.45H687.93V57h33.6v3.45H691.38Z"/><path class="cls-2" d="M770.65,105.68h-5.92L747.81,87.15H734.46v18.53h-3.88V57H752.7c10.91,0,16.44,7.58,16.52,15.16.07,7.93-5.31,14.88-16.3,14.88Zm-36.19-22h17.27c8.5,0,12.26-4.81,12.33-11.63.07-5.71-3.83-11.63-11.91-11.63H734.46Z"/><path class="cls-3" d="M30.94,38.41,56.71,28.17a1.73,1.73,0,0,1,.34-.1L184.34,5.68a.24.24,0,0,0,.14-.08.48.48,0,0,0,.09-.17,1,1,0,0,0,0-.21,1.33,1.33,0,0,0,0-.14c0-.38-.16-.79-.42-.77h0L47.48,11.84a9.3,9.3,0,0,0-1.84.29l-12,3.22a7.4,7.4,0,0,0-5.41,8.51Z"/><path class="cls-3" d="M189.79,7.82l0-.09,0-.07,0-.1,0-.05-.06-.1,0,0-.07-.09,0,0-.09-.09h0a1,1,0,0,0-.88-.2L59.83,34.63,20.64,52.35a8.7,8.7,0,0,0-5.77,6.37L4.42,100.61a4.33,4.33,0,0,0,4.33,5.27h0l.3,0h0l.27,0h.06l.25-.06.08,0,.23-.07.09,0,.23-.09.09,0,.31-.15L189.24,8.95l.17-.11,0,0,.09-.09,0-.06.06-.09,0-.06,0-.1,0-.07,0-.1V8.15a1,1,0,0,0,0-.11s0,0,0-.06A1.13,1.13,0,0,0,189.79,7.82Z"/><path class="cls-4" d="M194.11,7.84v0A5.47,5.47,0,0,0,194,7c0-.15-.06-.29-.1-.44s-.05-.19-.08-.28l0,0c-.05-.15-.11-.29-.18-.45l-.12-.26c-.08-.16-.17-.32-.27-.47l-.14-.21a5.39,5.39,0,0,0-.35-.44l-.15-.16a5.34,5.34,0,0,0-.47-.44h0L192,3.72a5.34,5.34,0,0,0-3.25-1.1l-.39,0A4.59,4.59,0,0,0,184.21,0H184L47.24,7.53A13.69,13.69,0,0,0,44.52,8l-12,3.21A11.75,11.75,0,0,0,24,24.64L26.7,39.2a4.28,4.28,0,0,0,4.91,3.46L19.06,48.34a13.08,13.08,0,0,0-8.38,9.38L.21,99.67a8.56,8.56,0,0,0,1.67,7.26,8.74,8.74,0,0,0,6.75,3.26h.24l.55,0h.12l.51-.07.16,0,.45-.1.21-.05.41-.12.21-.07.42-.16.2-.08c.21-.09.41-.19.62-.3L37,96a4.3,4.3,0,0,0,2.44,3.47l22,10.4a11.73,11.73,0,0,0,12.22-1.35L191.51,16.92a5,5,0,0,0,1.59-5.77c.1-.13.19-.26.25-.37s.14-.24.19-.34a5.23,5.23,0,0,0,.23-.52c0-.12.09-.24.12-.36s.09-.32.12-.5,0-.25.06-.39,0-.37,0-.49S194.11,7.94,194.11,7.84Z"/><path class="cls-3" d="M188.11,12.37,77.91,74.85,41.27,95.62l22,10.4a7.42,7.42,0,0,0,7.73-.85L97.7,84.42h0l37.37-29.06,53.81-41.84a.66.66,0,0,0,.27-.58A.69.69,0,0,0,188.11,12.37Z"/><path class="cls-5" d="M184.2,4.31,47.48,11.84a9.31,9.31,0,0,0-1.84.29l-12,3.22a7.4,7.4,0,0,0-5.41,8.51l2.71,14.56L56.71,28.17a1.73,1.73,0,0,1,.34-.1L184.34,5.68C184.79,5.6,184.66,4.28,184.2,4.31Z"/><path class="cls-6" d="M188.51,7,59.83,34.63,20.64,52.35a8.71,8.71,0,0,0-5.77,6.37L4.42,100.61a4.32,4.32,0,0,0,6.27,4.75L189.24,8.95A1.07,1.07,0,0,0,188.51,7Z"/><path class="cls-7" d="M188.87,13.52,71,105.17a7.42,7.42,0,0,1-7.73.85l-22-10.4L188.11,12.37A.69.69,0,0,1,188.87,13.52Z"/><path class="cls-8" d="M184.2,4.31c.46,0,.59,1.29.15,1.37L56.88,28.11,52,19.6a3.13,3.13,0,0,1,2.47-4.68Z"/><path class="cls-9" d="M5.87,104.86,57.42,39.64A6.48,6.48,0,0,1,61,37.35L189,7a1.08,1.08,0,0,1,.28,2L10.69,105.36A4.26,4.26,0,0,1,5.87,104.86Z"/><path class="cls-10" d="M189.76,7.73l0-.07,0-.1,0-.05-.06-.1,0,0-.07-.09,0,0-.09-.09h0a1,1,0,0,0-.88-.2l-6.82,1.47L15,98.43l-.31.15-.09,0-.23.09-.09,0-.23.07-.08,0-.25.06h-.06l-.27,0h0l-.3,0h0a4.33,4.33,0,0,1-4.33-5.27L18.83,53.2a8.7,8.7,0,0,0-4,5.53L4.42,100.61a4.33,4.33,0,0,0,4.33,5.27h0l.3,0h0l.27,0h.06l.25-.06.08,0,.23-.07.09,0,.23-.09.09,0,.31-.15L189.24,8.95l.17-.11,0,0,.09-.09,0-.06.06-.09,0-.06,0-.1,0-.07,0-.1V8.15a1,1,0,0,0,0-.11s0,0,0-.06a1.13,1.13,0,0,0,0-.16Z"/><path class="cls-3" d="M77.91,74.85l110.2-62.48a.69.69,0,0,1,.76,1.15L97.7,84.42Z"/><g class="cls-11"><path class="cls-12" d="M74.42,15.11a1.51,1.51,0,0,1-.1-3L132,8.74a1.51,1.51,0,1,1,.17,3L74.49,15.1Z"/></g><path class="cls-13" d="M79.19,35.83a1.51,1.51,0,0,1-.33-3L127.36,22a1.51,1.51,0,0,1,.66,2.94L79.52,35.79A1.52,1.52,0,0,1,79.19,35.83Z"/><path class="cls-13" d="M24.44,57a1.51,1.51,0,0,1-.61-2.89l31.5-14a1.51,1.51,0,1,1,1.23,2.76L25,56.9A1.5,1.5,0,0,1,24.44,57Z"/></g></g></g></svg>